<?xml version="1.0" encoding="UTF-8"?>
<svg width="40pt" height="40pt" version="1.1" viewBox="0 0 1200 1200" xmlns="http://www.w3.org/2000/svg">
 <path d="m1082.2 722.66-187.48-131.25c-19.293-13.539-45.242-13.52-64.5 0l-187.5 131.25c-25.406 17.793-31.633 52.93-13.82 78.355 14.832 21.133 41.605 28.727 64.82 20.492v172.22c0 10.352 8.3828 18.75 18.75 18.75h300c10.367 0 18.75-8.3984 18.75-18.75v-131.25c0-10.352-8.3828-18.75-18.75-18.75-10.367 0-18.75 8.3984-18.75 18.75v112.5h-75v-75c0-10.352-8.3828-18.75-18.75-18.75h-75c-10.367 0-18.75 8.3984-18.75 18.75v75h-75v-176.98l131.25-91.855 155.23 108.64c9.4883 6.6562 20.645 10.18 32.23 10.18 18.355 0 35.586-8.9805 46.125-24 17.773-25.406 11.57-60.543-13.836-78.336zm-238.5 196.09h37.5v56.25h-37.5zm221.61-139.26c-5.7188 8.1758-17.906 10.367-26.117 4.6133l-166.01-116.2c-3.2266-2.2695-6.9922-3.3945-10.742-3.3945s-7.5195 1.125-10.742 3.3945l-166.01 116.2c-8.4922 5.9258-20.176 3.8242-26.102-4.6133-5.9062-8.4766-3.8438-20.195 4.6133-26.117l187.52-131.25c6.4141-4.4805 15.039-4.5 21.488 0l187.5 131.25c8.457 5.9258 10.539 17.645 4.6133 26.102z" fill="#1e4c7a"/>
 <path d="m1010.5 291.62-56.25-112.5c-3.1875-6.3555-9.6758-10.367-16.781-10.367h-675v-63.414l112.5-56.25v82.164c0 10.352 8.3828 18.75 18.75 18.75s18.75-8.3984 18.75-18.75v-112.5c0-6.5078-3.375-12.523-8.9062-15.957-5.5312-3.4297-12.414-3.7305-18.242-0.82422l-149.98 75c-6.3555 3.168-10.367 9.6758-10.367 16.781v75h-112.5c-10.367 0-18.75 8.3984-18.75 18.75v112.5c0 10.352 8.3828 18.75 18.75 18.75h262.5v25.914l-112.5 56.25v-44.664c0-10.352-8.3828-18.75-18.75-18.75s-18.75 8.3984-18.75 18.75v693.75h-56.25c-41.363 0-75 33.637-75 75v56.25c0 10.352 8.3828 18.75 18.75 18.75h412.5c10.367 0 18.75-8.3984 18.75-18.75v-56.25c0-41.363-33.637-75-75-75h-206.25v-82.164l112.5-56.25v100.91c0 10.352 8.3828 18.75 18.75 18.75s18.75-8.3984 18.75-18.75v-693.75h375v56.25c0 10.352 8.3828 18.75 18.75 18.75h37.5v150c0 10.352 8.3828 18.75 18.75 18.75s18.75-8.3984 18.75-18.75v-150h37.5c10.367 0 18.75-8.3984 18.75-18.75v-56.25h56.25c6.5078 0 12.523-3.375 15.957-8.8867 3.4297-5.5312 3.7305-12.43 0.82422-18.242zm-504.28 833.38v37.5h-375v-37.5c0-20.68 16.82-37.5 37.5-37.5h300c20.68 0 37.5 16.82 37.5 37.5zm-131.25-517.84-112.5 56.25v-89.324l112.5-56.25zm-112.5 98.176 112.5-56.25v89.324l-112.5 56.25zm112.5-318.75v89.324l-112.5 56.25v-89.324zm-112.5 539.32v-89.324l112.5-56.25v89.324zm637.5-569.66h-75v-37.5h75zm-768.75-75v-75h37.5v37.5c0 10.352 8.3828 18.75 18.75 18.75s18.75-8.3984 18.75-18.75v-37.5h75v37.5c0 10.352 8.3828 18.75 18.75 18.75s18.75-8.3984 18.75-18.75v-37.5h75v37.5c0 10.352 8.3828 18.75 18.75 18.75s18.75-8.3984 18.75-18.75v-37.5h75v37.5c0 10.352 8.3828 18.75 18.75 18.75s18.75-8.3984 18.75-18.75v-37.5h75v37.5c0 10.352 8.3828 18.75 18.75 18.75s18.75-8.3984 18.75-18.75v-37.5h75v37.5c0 10.352 8.3828 18.75 18.75 18.75s18.75-8.3984 18.75-18.75v-37.5h75v37.5c0 10.352 8.3828 18.75 18.75 18.75s18.75-8.3984 18.75-18.75v-37.5h44.664l37.5 75z" fill="#1e4c7a"/>
</svg>
