<?xml version="1.0" encoding="UTF-8"?>
<svg width="50pt" height="50pt" version="1.1" viewBox="0 0 1200 1200" xmlns="http://www.w3.org/2000/svg">
 <path d="m961.85 720.86c-23.527 0-46.215 5.5-66.723 15.859-3.3672-5.582-7.0742-10.914-11.031-16.051 2.3828-5.5898 4.3789-11.387 5.7031-17.477l24.645-110.61c1.1172-5.0156 0.12891-10.273-2.7266-14.52-2.8555-4.2656-7.3438-7.1797-12.395-8.0391l-36.898-6.293 34.27-203.01 41.289-36.902c10.5-9.4102 14.602-23.656 10.695-37.188-3.8984-13.531-14.961-23.418-28.848-25.781l-101.9-17.285c-15.418-2.4922-29.836 4.6133-37.41 17.414-6.5938 11.188-6.7734 24.664-0.47656 36.07l27.469 49.621-36.172 201.53-36.961-6.3008c-5.0977-0.85938-10.273 0.36719-14.391 3.4414-4.1211 3.0781-6.793 7.707-7.4062 12.816l-11.988 100.9c-25.473 6.7969-48.711 19.445-68.441 36.66v-67.172c0-10.363-8.3945-18.75-18.75-18.75h-94.023v-97.191c0-10.363-8.3945-18.75-18.75-18.75l-217.73-0.007812c-10.355 0-18.75 8.3867-18.75 18.75v97.266h-86.141c-10.355 0-18.75 8.3867-18.75 18.75v97.266h-50.648c-10.355 0-18.75 8.3867-18.75 18.75v116.02c0 10.363 8.3945 18.75 18.75 18.75h217.72c0.03125 0 0.058594-0.019531 0.089844-0.019531h77.719c1.625 24.172 8.5742 47.645 21.004 68.352 0.70312 1.1758 1.5859 2.1602 2.4883 3.1211 3.4375 3.7031 7.9258 5.5 12.285 5.8125 5.6484 0.42969 625.72 0.27734 631.39 0.27734 8.9609 0 13.156-4.7695 17.164-11.281 0.035156-0.082032 0.089843-0.14844 0.125-0.23047 13.98-22.844 21.531-49.09 21.531-76.289-0.003907-81.754-66.527-148.27-148.29-148.27zm-50.617-423.43-58.949 52.68-38.289-69.176zm-72.57 87.98c4.2188 1.6797 8.6523 2.8594 13.344 2.8594 0.69141 0 1.3633-0.14844 2.0469-0.1875l-28.586 169.34-17.156-2.9258zm-91.172 196.79 35.418 6.0234c0.10156 0.019531 0.17578 0.089844 0.27734 0.10938 0.25781 0.046875 0.50781 0.03125 0.76562 0.066406l89.605 15.238-19.301 86.652c-29.641-23.359-67.141-37.25-108.05-37.25-2.4297 0-4.7812 0.35547-7.1875 0.45312zm-246.5 65.094h93.66v71.734c-11.812-2.9219-23.992-4.6445-36.52-4.6445-20.688 0-40.406 4.1523-58.461 11.555h-85.184v-78.57h86.141c0.12891 0 0.23438-0.070313 0.36328-0.074219zm-199.34-115.94h180.22v78.441h-86.18c-0.12891 0-0.23438 0.070313-0.36328 0.074219h-93.68zm5.9336 310.55h-180.22v-78.516h180.22zm18.75-116.02h-129.57v-78.516h180.18v78.516zm79.656 116h-60.871v-78.441h100.32c-20.055 21.387-34.09 48.398-39.445 78.441zm654.16 77.566h-607.44c-7.5742-15.617-11.762-32.785-11.762-50.391 0-2.7734 0.22656-5.4922 0.41797-8.2188 0-0.070313 0.042968-0.12891 0.042968-0.20312 0-0.042969-0.023437-0.078125-0.023437-0.12109 3.2031-44.047 30.789-81.387 69.363-98.527 0.074219-0.03125 0.13672-0.070312 0.21094-0.10156 14.449-6.3828 30.387-9.9961 47.172-9.9961 43.223 0 80.859 22.871 105.99 64.418 5.3555 8.8633 16.902 11.684 25.746 6.3359 8.8633-5.3633 11.699-16.883 6.3359-25.746-14.672-24.258-33.449-43.477-54.809-57.398 25.574-30.906 63.484-48.949 104.81-48.949 74.004 0 133.89 57.75 136.35 131.47 0.33984 10.145 8.6602 18.129 18.73 18.129 0.21094 0 0.42188 0 0.63281-0.019531 10.355-0.32813 18.465-9.0078 18.117-19.355-0.58203-17.492-3.7148-34.27-9.0078-50.008 15.559-8.0469 32.828-12.395 50.82-12.395 61.086 0 110.78 49.695 110.78 110.78 0 17.766-4.4453 34.895-12.477 50.301z" fill="#679267"/>
</svg>
