<?xml version="1.0" encoding="UTF-8"?>
<svg width="40pt" height="40pt" version="1.1" viewBox="0 0 1200 1200" xmlns="http://www.w3.org/2000/svg">
 <path d="m580.8 750.67 17.113-32.641 9.4336 53.902zm-53.402-106.75-20.543 47.449-10.367-8.3281-5.2812-54.77zm-527.4 475.56h1200l-600-1039zm600-902.71 481.95 834.55h-963.91zm54.887 593.28-17.594-165.5-31.922-13.871c20.16 1.9688 39.312-9.4336 47.398-28.055 10.441-23.734-0.74219-51.434-24.406-61.703-23.785-10.297-51.383 0.64844-61.68 24.434-8.0898 18.719-3.1914 40.297 11.953 53.785l-136.61-59.09c3.3125 38.879 7.2461 77.734 10.754 116.59l44.855 35.977c-35.617 82.223-69.145 165.53-103.01 248.52l47.258 20.449 77.473-188.95 47.664 70.969-41.473 97.078 47.281 20.473 52.559-123.02-56.688-84.406 1.5352-2.9297 124.49 99.816 29.258 23.449-99.672 85.031h337.46l-168.7-143.95-51.793 44.184-27.527-22.035z" fill="#ff6a61" fill-rule="evenodd"/>
</svg>
