<?xml version="1.0" encoding="UTF-8"?>
<svg width="45pt" height="45pt" version="1.1" viewBox="0 0 1200 1200" xmlns="http://www.w3.org/2000/svg">
 <path d="m999.98 955.18-126.84-455.86h72.891c7.7812 0 14.109-6.3281 14.109-14.109l-0.046875-125.81c0-7.7812-6.3281-14.109-14.109-14.109h-65.578c9.75-12.422 15.562-28.078 15.562-45.094 0-40.406-32.859-73.266-73.266-73.266s-73.266 32.859-73.266 73.266c0 16.969 5.8125 32.625 15.562 45.094h-329.95c9.75-12.422 15.562-28.078 15.562-45.094 0-40.406-32.859-73.266-73.266-73.266s-73.266 32.859-73.266 73.266c0 16.969 5.8125 32.625 15.562 45.094h-65.625c-7.7812 0-14.109 6.3281-14.109 14.109v125.86c0 7.7812 6.3281 14.109 14.109 14.109h72.891l-126.89 455.81c-1.1719 4.2656-0.32812 8.8125 2.3438 12.328s6.7969 5.5781 11.25 5.5781h108.84c6.3281 0 11.906-4.2188 13.594-10.312l63.047-226.55h401.81l63.047 226.55c1.6875 6.0938 7.2656 10.312 13.594 10.312h108.84c4.4062 0 8.5781-2.0625 11.25-5.5781 2.6719-3.5156 3.5156-8.0625 2.3438-12.328zm-51.328-79.172h-79.594l-104.81-376.64h79.547zm-602.95-404.86h-56.719l80.016-97.641h109.45l-79.969 97.641zm169.22-97.641h109.45l-79.969 97.641h-109.45zm255.37 0-80.016 97.641h-109.41l80.016-97.641zm65.906 97.641h-109.45l80.016-97.641h109.45zm-285.14 28.172h183.89l34.031 122.34h-338.02l34.031-122.34zm321.61-28.172 59.203-72.281v72.281zm-49.969-216c24.844 0 45.094 20.203 45.094 45.094 0 24.844-20.203 45.094-45.094 45.094-24.844 0-45.094-20.203-45.094-45.094 0-24.891 20.203-45.094 45.094-45.094zm-445.4 0c24.844 0 45.094 20.203 45.094 45.094 0 24.844-20.203 45.094-45.094 45.094-24.844 0-45.094-20.203-45.094-45.094 0.046875-24.891 20.25-45.094 45.094-45.094zm-44.719 118.36-64.453 78.703-0.046875-78.703zm72.562 125.81h30.562l-104.77 376.69h-79.594l104.81-376.64zm-93.375 445.55h-79.594l11.344-40.688h79.594zm95.156-236.86 16.172-58.125h353.76l16.172 58.125zm481.31 236.86-11.344-40.688h79.594l11.344 40.688z" fill="#ffc106"/>
</svg>
